<mxfile host="65bd71144e">
    <diagram id="Y0fibIb1W8BCP0bX3ucf" name="Page-1">
        <mxGraphModel dx="2736" dy="1549" grid="1" gridSize="10" guides="1" tooltips="1" connect="1" arrows="1" fold="1" page="1" pageScale="1" pageWidth="2339" pageHeight="3300" background="#ffffff" math="0" shadow="0">
            <root>
                <mxCell id="0"/>
                <mxCell id="1" parent="0"/>
                <mxCell id="103" value="" style="rounded=0;whiteSpace=wrap;html=1;" parent="1" vertex="1">
                    <mxGeometry x="190" y="260" width="1970" height="1150" as="geometry"/>
                </mxCell>
                <mxCell id="2" value="露光データ.spe" style="shape=note;whiteSpace=wrap;html=1;backgroundOutline=1;darkOpacity=0.05;fillColor=#e1d5e7;strokeColor=#9673a6;" parent="1" vertex="1">
                    <mxGeometry x="550" y="580" width="120" height="100" as="geometry"/>
                </mxCell>
                <mxCell id="3" value="時系列XRDデータ.nxs" style="shape=note;whiteSpace=wrap;html=1;backgroundOutline=1;darkOpacity=0.05;fillColor=#e1d5e7;strokeColor=#9673a6;" parent="1" vertex="1">
                    <mxGeometry x="583" y="1046" width="150" height="80" as="geometry"/>
                </mxCell>
                <mxCell id="4" value="露光データ_回転中心_回転角度.spe" style="shape=note;whiteSpace=wrap;html=1;backgroundOutline=1;darkOpacity=0.05;" parent="1" vertex="1">
                    <mxGeometry x="770" y="580" width="120" height="100" as="geometry"/>
                </mxCell>
                <mxCell id="6" value="校正された&lt;div&gt;スペクトルデータ.hdf&lt;/div&gt;" style="shape=note;whiteSpace=wrap;html=1;backgroundOutline=1;darkOpacity=0.05;" parent="1" vertex="1">
                    <mxGeometry x="1010" y="580" width="120" height="100" as="geometry"/>
                </mxCell>
                <mxCell id="7" value="" style="endArrow=classic;html=1;entryX=0;entryY=1;entryDx=0;entryDy=0;entryPerimeter=0;exitX=1;exitY=1;exitDx=0;exitDy=0;exitPerimeter=0;" parent="1" source="4" target="6" edge="1">
                    <mxGeometry width="50" height="50" relative="1" as="geometry">
                        <mxPoint x="940" y="630.5" as="sourcePoint"/>
                        <mxPoint x="1041" y="629.5" as="targetPoint"/>
                        <Array as="points">
                            <mxPoint x="950" y="720"/>
                        </Array>
                    </mxGeometry>
                </mxCell>
                <mxCell id="8" value="" style="shape=image;verticalLabelPosition=bottom;labelBackgroundColor=default;verticalAlign=top;aspect=fixed;imageAspect=0;image=https://streamlit.io/images/brand/streamlit-logo-primary-colormark-darktext.png;" parent="1" vertex="1">
                    <mxGeometry x="245" y="420" width="230" height="63.83" as="geometry"/>
                </mxCell>
                <mxCell id="12" value="" style="shape=image;verticalLabelPosition=bottom;labelBackgroundColor=default;verticalAlign=top;aspect=fixed;imageAspect=0;image=https://upload.wikimedia.org/wikipedia/commons/thumb/3/38/Jupyter_logo.svg/1767px-Jupyter_logo.svg.png;" parent="1" vertex="1">
                    <mxGeometry x="390" y="490" width="60.38" height="70" as="geometry"/>
                </mxCell>
                <mxCell id="17" value="" style="endArrow=classic;html=1;exitX=1;exitY=1;exitDx=0;exitDy=0;exitPerimeter=0;entryX=0;entryY=1;entryDx=0;entryDy=0;entryPerimeter=0;" parent="1" source="2" target="4" edge="1">
                    <mxGeometry width="50" height="50" relative="1" as="geometry">
                        <mxPoint x="690" y="750" as="sourcePoint"/>
                        <mxPoint x="740" y="700" as="targetPoint"/>
                        <Array as="points">
                            <mxPoint x="720" y="720"/>
                        </Array>
                    </mxGeometry>
                </mxCell>
                <mxCell id="18" value="" style="group;fillColor=#fff2cc;strokeColor=#d6b656;" parent="1" vertex="1" connectable="0">
                    <mxGeometry x="596.91" y="720" width="260" height="80" as="geometry"/>
                </mxCell>
                <mxCell id="13" value="&lt;font style=&quot;font-size: 18px;&quot;&gt;RadiationSpectraRotator&lt;/font&gt;" style="shape=process;whiteSpace=wrap;html=1;backgroundOutline=1;verticalAlign=top;" parent="18" vertex="1">
                    <mxGeometry width="260" height="80" as="geometry"/>
                </mxCell>
                <mxCell id="14" value="" style="shape=image;verticalLabelPosition=bottom;labelBackgroundColor=default;verticalAlign=top;aspect=fixed;imageAspect=0;image=https://streamlit.io/images/brand/streamlit-logo-primary-colormark-darktext.png;" parent="18" vertex="1">
                    <mxGeometry x="43.09000000000003" y="30" width="157.93" height="43.83" as="geometry"/>
                </mxCell>
                <mxCell id="19" value="校正参照用&lt;div&gt;ランプデータ.csv&lt;/div&gt;" style="shape=note;whiteSpace=wrap;html=1;backgroundOutline=1;darkOpacity=0.05;fillColor=#e1d5e7;strokeColor=#9673a6;" parent="1" vertex="1">
                    <mxGeometry x="820" y="390" width="120" height="100" as="geometry"/>
                </mxCell>
                <mxCell id="23" value="&lt;div&gt;&lt;span style=&quot;background-color: transparent;&quot;&gt;温度分布・誤差&lt;/span&gt;&lt;/div&gt;&lt;div&gt;&lt;span style=&quot;background-color: transparent;&quot;&gt;データ.hdf&lt;/span&gt;&lt;br&gt;&lt;/div&gt;&lt;div&gt;&lt;span style=&quot;background-color: transparent;&quot;&gt;(by Planck fitting)&lt;/span&gt;&lt;/div&gt;" style="shape=note;whiteSpace=wrap;html=1;backgroundOutline=1;darkOpacity=0.05;" parent="1" vertex="1">
                    <mxGeometry x="1240" y="570" width="120" height="110" as="geometry"/>
                </mxCell>
                <mxCell id="29" value="" style="endArrow=classic;html=1;exitX=1;exitY=1;exitDx=0;exitDy=0;exitPerimeter=0;entryX=0;entryY=1;entryDx=0;entryDy=0;entryPerimeter=0;" parent="1" source="6" target="23" edge="1">
                    <mxGeometry width="50" height="50" relative="1" as="geometry">
                        <mxPoint x="1170" y="640" as="sourcePoint"/>
                        <mxPoint x="1220" y="590" as="targetPoint"/>
                        <Array as="points">
                            <mxPoint x="1180" y="720"/>
                        </Array>
                    </mxGeometry>
                </mxCell>
                <mxCell id="30" value="校正用ODフィルターデータ.spe" style="shape=note;whiteSpace=wrap;html=1;backgroundOutline=1;darkOpacity=0.05;fillColor=#e1d5e7;strokeColor=#9673a6;" parent="1" vertex="1">
                    <mxGeometry x="950" y="390" width="120" height="100" as="geometry"/>
                </mxCell>
                <mxCell id="31" value="" style="endArrow=none;html=1;exitX=0.5;exitY=1;exitDx=0;exitDy=0;exitPerimeter=0;entryX=0.5;entryY=1;entryDx=0;entryDy=0;entryPerimeter=0;" parent="1" source="19" target="30" edge="1">
                    <mxGeometry width="50" height="50" relative="1" as="geometry">
                        <mxPoint x="1030" y="580" as="sourcePoint"/>
                        <mxPoint x="1080" y="530" as="targetPoint"/>
                        <Array as="points">
                            <mxPoint x="940" y="560"/>
                        </Array>
                    </mxGeometry>
                </mxCell>
                <mxCell id="32" value="" style="endArrow=classic;html=1;" parent="1" edge="1">
                    <mxGeometry width="50" height="50" relative="1" as="geometry">
                        <mxPoint x="940" y="560" as="sourcePoint"/>
                        <mxPoint x="950" y="710" as="targetPoint"/>
                    </mxGeometry>
                </mxCell>
                <mxCell id="33" value="" style="endArrow=classic;html=1;entryX=0;entryY=1;entryDx=0;entryDy=0;entryPerimeter=0;" parent="1" target="34" edge="1">
                    <mxGeometry width="50" height="50" relative="1" as="geometry">
                        <mxPoint x="1180" y="720" as="sourcePoint"/>
                        <mxPoint x="1240" y="500" as="targetPoint"/>
                    </mxGeometry>
                </mxCell>
                <mxCell id="34" value="温度、誤差データ&lt;div&gt;&lt;font color=&quot;#000000&quot;&gt;(by 二色法)&lt;br&gt;&lt;/font&gt;&lt;div&gt;※file出力未対応、&lt;/div&gt;&lt;div&gt;図の出力あり&lt;/div&gt;&lt;/div&gt;" style="shape=note;whiteSpace=wrap;html=1;backgroundOutline=1;darkOpacity=0.05;" parent="1" vertex="1">
                    <mxGeometry x="1240" y="390" width="120" height="130" as="geometry"/>
                </mxCell>
                <mxCell id="38" value="" style="group;fillColor=#fff2cc;strokeColor=#d6b656;" parent="1" vertex="1" connectable="0">
                    <mxGeometry x="910" y="720" width="370" height="80" as="geometry"/>
                </mxCell>
                <mxCell id="21" value="&lt;font style=&quot;font-size: 18px;&quot;&gt;PlanckThermoEmulator&lt;/font&gt;" style="shape=process;whiteSpace=wrap;html=1;backgroundOutline=1;verticalAlign=top;" parent="38" vertex="1">
                    <mxGeometry width="370" height="80" as="geometry"/>
                </mxCell>
                <mxCell id="22" value="" style="shape=image;verticalLabelPosition=bottom;labelBackgroundColor=default;verticalAlign=top;aspect=fixed;imageAspect=0;image=https://streamlit.io/images/brand/streamlit-logo-primary-colormark-darktext.png;" parent="38" vertex="1">
                    <mxGeometry x="106.03038461538472" y="30" width="157.93" height="43.83" as="geometry"/>
                </mxCell>
                <mxCell id="39" value="" style="group;fillColor=#fff2cc;strokeColor=#d6b656;" parent="1" vertex="1" connectable="0">
                    <mxGeometry x="813" y="1266" width="260" height="80" as="geometry"/>
                </mxCell>
                <mxCell id="36" value="&lt;font style=&quot;font-size: 18px;&quot;&gt;XRDSpotAnalyzer&lt;/font&gt;" style="shape=process;whiteSpace=wrap;html=1;backgroundOutline=1;verticalAlign=top;container=0;" parent="39" vertex="1">
                    <mxGeometry width="260" height="80" as="geometry"/>
                </mxCell>
                <mxCell id="37" value="" style="shape=image;verticalLabelPosition=bottom;labelBackgroundColor=default;verticalAlign=top;aspect=fixed;imageAspect=0;image=https://streamlit.io/images/brand/streamlit-logo-primary-colormark-darktext.png;container=0;" parent="39" vertex="1">
                    <mxGeometry x="43.09000000000003" y="30" width="157.93" height="43.83" as="geometry"/>
                </mxCell>
                <mxCell id="40" value="" style="group;fillColor=#fff2cc;strokeColor=#d6b656;" parent="1" vertex="1" connectable="0">
                    <mxGeometry x="229.99999999999994" y="860" width="260" height="80" as="geometry"/>
                </mxCell>
                <mxCell id="41" value="&lt;font style=&quot;font-size: 18px;&quot;&gt;AppManager&lt;/font&gt;" style="shape=process;whiteSpace=wrap;html=1;backgroundOutline=1;verticalAlign=top;container=0;" parent="40" vertex="1">
                    <mxGeometry width="260" height="80" as="geometry"/>
                </mxCell>
                <mxCell id="42" value="" style="shape=image;verticalLabelPosition=bottom;labelBackgroundColor=default;verticalAlign=top;aspect=fixed;imageAspect=0;image=https://streamlit.io/images/brand/streamlit-logo-primary-colormark-darktext.png;container=0;" parent="40" vertex="1">
                    <mxGeometry x="43.09000000000003" y="30" width="157.93" height="43.83" as="geometry"/>
                </mxCell>
                <mxCell id="43" value="温度データ処理" style="swimlane;whiteSpace=wrap;html=1;fillColor=#ffe6cc;strokeColor=#d79b00;strokeWidth=3;" parent="1" vertex="1">
                    <mxGeometry x="530" y="330" width="850" height="490" as="geometry"/>
                </mxCell>
                <mxCell id="59" value="XRD校正データ.poni" style="shape=note;whiteSpace=wrap;html=1;backgroundOutline=1;darkOpacity=0.05;fillColor=#e1d5e7;strokeColor=#9673a6;" parent="1" vertex="1">
                    <mxGeometry x="583" y="1146" width="150" height="80" as="geometry"/>
                </mxCell>
                <mxCell id="60" value="" style="shape=image;verticalLabelPosition=bottom;labelBackgroundColor=default;verticalAlign=top;aspect=fixed;imageAspect=0;image=https://learning-with-funacademic.com/wp-content/uploads/2022/10/Python-Symbol.png;" parent="1" vertex="1">
                    <mxGeometry x="270" y="494.06000000000006" width="110" height="61.88" as="geometry"/>
                </mxCell>
                <mxCell id="61" value="" style="endArrow=none;html=1;entryX=1;entryY=0.498;entryDx=0;entryDy=0;entryPerimeter=0;exitX=1.001;exitY=0.498;exitDx=0;exitDy=0;exitPerimeter=0;" parent="1" source="59" target="3" edge="1">
                    <mxGeometry width="50" height="50" relative="1" as="geometry">
                        <mxPoint x="893" y="1136" as="sourcePoint"/>
                        <mxPoint x="943" y="1086" as="targetPoint"/>
                        <Array as="points">
                            <mxPoint x="773" y="1136"/>
                        </Array>
                    </mxGeometry>
                </mxCell>
                <mxCell id="62" value="" style="endArrow=classic;html=1;entryX=0;entryY=0.5;entryDx=0;entryDy=0;entryPerimeter=0;" parent="1" target="73" edge="1">
                    <mxGeometry width="50" height="50" relative="1" as="geometry">
                        <mxPoint x="773" y="1126" as="sourcePoint"/>
                        <mxPoint x="1353" y="1116" as="targetPoint"/>
                        <Array as="points">
                            <mxPoint x="1083" y="1006"/>
                        </Array>
                    </mxGeometry>
                </mxCell>
                <mxCell id="63" value="" style="endArrow=classic;html=1;exitX=1;exitY=0;exitDx=0;exitDy=0;entryX=0;entryY=1;entryDx=0;entryDy=0;" parent="1" source="41" target="13" edge="1">
                    <mxGeometry relative="1" as="geometry">
                        <mxPoint x="860" y="880" as="sourcePoint"/>
                        <mxPoint x="960" y="880" as="targetPoint"/>
                    </mxGeometry>
                </mxCell>
                <mxCell id="64" value="&lt;font style=&quot;color: rgb(255, 0, 0);&quot;&gt;起動&lt;/font&gt;" style="edgeLabel;resizable=0;html=1;;align=center;verticalAlign=middle;fontSize=18;" parent="63" connectable="0" vertex="1">
                    <mxGeometry relative="1" as="geometry"/>
                </mxCell>
                <mxCell id="66" value="" style="endArrow=classic;html=1;exitX=1;exitY=0;exitDx=0;exitDy=0;entryX=0;entryY=1;entryDx=0;entryDy=0;" parent="1" source="41" target="21" edge="1">
                    <mxGeometry relative="1" as="geometry">
                        <mxPoint x="500" y="870" as="sourcePoint"/>
                        <mxPoint x="607" y="810" as="targetPoint"/>
                    </mxGeometry>
                </mxCell>
                <mxCell id="67" value="&lt;font style=&quot;color: rgb(255, 0, 0);&quot;&gt;起動&lt;/font&gt;" style="edgeLabel;resizable=0;html=1;;align=center;verticalAlign=middle;fontSize=18;" parent="66" connectable="0" vertex="1">
                    <mxGeometry relative="1" as="geometry"/>
                </mxCell>
                <mxCell id="68" value="" style="endArrow=classic;html=1;exitX=1;exitY=1;exitDx=0;exitDy=0;entryX=0;entryY=0.5;entryDx=0;entryDy=0;" parent="1" source="41" target="57" edge="1">
                    <mxGeometry relative="1" as="geometry">
                        <mxPoint x="500" y="870" as="sourcePoint"/>
                        <mxPoint x="920" y="810" as="targetPoint"/>
                    </mxGeometry>
                </mxCell>
                <mxCell id="69" value="&lt;font style=&quot;color: rgb(255, 0, 0);&quot;&gt;起動&lt;/font&gt;" style="edgeLabel;resizable=0;html=1;;align=center;verticalAlign=middle;fontSize=18;" parent="68" connectable="0" vertex="1">
                    <mxGeometry relative="1" as="geometry"/>
                </mxCell>
                <mxCell id="70" value="" style="endArrow=classic;html=1;exitX=1;exitY=1;exitDx=0;exitDy=0;entryX=0;entryY=0.5;entryDx=0;entryDy=0;" parent="1" source="41" target="36" edge="1">
                    <mxGeometry relative="1" as="geometry">
                        <mxPoint x="500" y="950" as="sourcePoint"/>
                        <mxPoint x="870" y="954" as="targetPoint"/>
                        <Array as="points">
                            <mxPoint x="540" y="1230"/>
                        </Array>
                    </mxGeometry>
                </mxCell>
                <mxCell id="71" value="&lt;font style=&quot;color: rgb(255, 0, 0);&quot;&gt;起動&lt;/font&gt;" style="edgeLabel;resizable=0;html=1;;align=center;verticalAlign=middle;fontSize=18;" parent="70" connectable="0" vertex="1">
                    <mxGeometry relative="1" as="geometry"/>
                </mxCell>
                <mxCell id="72" value="" style="endArrow=classic;html=1;exitX=1;exitY=1;exitDx=0;exitDy=0;exitPerimeter=0;entryX=0;entryY=0;entryDx=60;entryDy=0;entryPerimeter=0;" parent="1" source="23" target="73" edge="1">
                    <mxGeometry width="50" height="50" relative="1" as="geometry">
                        <mxPoint x="1350" y="1010" as="sourcePoint"/>
                        <mxPoint x="1390" y="1040" as="targetPoint"/>
                        <Array as="points">
                            <mxPoint x="1300" y="930"/>
                        </Array>
                    </mxGeometry>
                </mxCell>
                <mxCell id="75" value="" style="endArrow=classic;html=1;exitX=-0.001;exitY=0.097;exitDx=0;exitDy=0;exitPerimeter=0;entryX=0.096;entryY=0.001;entryDx=0;entryDy=0;entryPerimeter=0;rounded=0;curved=1;" parent="1" source="73" target="73" edge="1">
                    <mxGeometry width="50" height="50" relative="1" as="geometry">
                        <mxPoint x="1383" y="1046" as="sourcePoint"/>
                        <mxPoint x="1433" y="996" as="targetPoint"/>
                        <Array as="points">
                            <mxPoint x="1323" y="1056"/>
                            <mxPoint x="1283" y="986"/>
                            <mxPoint x="1373" y="1026"/>
                        </Array>
                    </mxGeometry>
                </mxCell>
                <mxCell id="73" value="1 runにおける&lt;div&gt;温度・XRD・圧力など&lt;/div&gt;&lt;div&gt;処理済みデータ&lt;span style=&quot;background-color: transparent;&quot;&gt;.hdf&lt;/span&gt;&lt;/div&gt;" style="shape=note;whiteSpace=wrap;html=1;backgroundOutline=1;darkOpacity=0.05;" parent="1" vertex="1">
                    <mxGeometry x="1373" y="1076" width="150" height="90" as="geometry"/>
                </mxCell>
                <mxCell id="76" value="" style="endArrow=classic;html=1;entryX=0;entryY=1;entryDx=0;entryDy=0;entryPerimeter=0;" parent="1" target="77" edge="1">
                    <mxGeometry width="50" height="50" relative="1" as="geometry">
                        <mxPoint x="773" y="1156" as="sourcePoint"/>
                        <mxPoint x="873" y="1146" as="targetPoint"/>
                        <Array as="points">
                            <mxPoint x="933" y="1266"/>
                        </Array>
                    </mxGeometry>
                </mxCell>
                <mxCell id="77" value="cake・patternなど&lt;div&gt;XRD処理データ.hdf&lt;/div&gt;" style="shape=note;whiteSpace=wrap;html=1;backgroundOutline=1;darkOpacity=0.05;" parent="1" vertex="1">
                    <mxGeometry x="1053" y="1126" width="150" height="100" as="geometry"/>
                </mxCell>
                <mxCell id="78" value="XRDデータ処理" style="swimlane;whiteSpace=wrap;html=1;fillColor=#d5e8d4;strokeColor=#82b366;strokeWidth=3;" parent="1" vertex="1">
                    <mxGeometry x="563" y="876" width="780" height="490" as="geometry"/>
                </mxCell>
                <mxCell id="56" value="" style="group;fillColor=#fff2cc;strokeColor=#d6b656;" parent="78" vertex="1" connectable="0">
                    <mxGeometry x="300" y="50" width="440" height="80" as="geometry"/>
                </mxCell>
                <mxCell id="57" value="&lt;font style=&quot;font-size: 18px;&quot;&gt;LAMBDA-Melting&lt;/font&gt;" style="shape=process;whiteSpace=wrap;html=1;backgroundOutline=1;verticalAlign=top;container=0;" parent="56" vertex="1">
                    <mxGeometry width="440" height="80" as="geometry"/>
                </mxCell>
                <mxCell id="58" value="" style="shape=image;verticalLabelPosition=bottom;labelBackgroundColor=default;verticalAlign=top;aspect=fixed;imageAspect=0;image=https://streamlit.io/images/brand/streamlit-logo-primary-colormark-darktext.png;container=0;" parent="56" vertex="1">
                    <mxGeometry x="141.0315384615385" y="31.17" width="157.93" height="43.83" as="geometry"/>
                </mxCell>
                <mxCell id="53" value="" style="shape=image;verticalLabelPosition=bottom;labelBackgroundColor=default;verticalAlign=top;aspect=fixed;imageAspect=0;image=https://upload.wikimedia.org/wikipedia/commons/thumb/3/38/Jupyter_logo.svg/1767px-Jupyter_logo.svg.png;" parent="56" vertex="1">
                    <mxGeometry x="329.99674000000005" y="4.9993750000001" width="60.38" height="70" as="geometry"/>
                </mxCell>
                <mxCell id="80" value="解析する人" style="shape=umlActor;verticalLabelPosition=bottom;verticalAlign=top;html=1;outlineConnect=0;" parent="1" vertex="1">
                    <mxGeometry x="1960" y="826" width="30" height="60" as="geometry"/>
                </mxCell>
                <mxCell id="81" value="&lt;div&gt;好きな解析手法を&lt;span style=&quot;background-color: transparent;&quot;&gt;使用し、&lt;/span&gt;&lt;/div&gt;&lt;div&gt;&lt;span style=&quot;background-color: transparent;&quot;&gt;必要なデータにアクセスし、&lt;/span&gt;&lt;/div&gt;&lt;div&gt;&lt;span style=&quot;background-color: transparent;&quot;&gt;(ここに出てきたデータには、それぞれの&lt;/span&gt;&lt;/div&gt;&lt;div&gt;&lt;span style=&quot;background-color: transparent;&quot;&gt;アプリ内にあるクラスで全てアクセスできる)&lt;/span&gt;&lt;/div&gt;&lt;div&gt;&lt;span style=&quot;background-color: transparent;&quot;&gt;notebookなどで解析する&lt;/span&gt;&lt;/div&gt;" style="shape=callout;whiteSpace=wrap;html=1;perimeter=calloutPerimeter;position2=0.74;base=45;" parent="1" vertex="1">
                    <mxGeometry x="1690" y="666" width="310" height="163.83" as="geometry"/>
                </mxCell>
                <mxCell id="86" value="" style="group;fillColor=#fff2cc;strokeColor=#d6b656;" parent="1" vertex="1" connectable="0">
                    <mxGeometry x="1720" y="936" width="307" height="190" as="geometry"/>
                </mxCell>
                <mxCell id="82" value="何かの解析処理プログラム" style="shape=process;whiteSpace=wrap;html=1;backgroundOutline=1;verticalAlign=top;" parent="86" vertex="1">
                    <mxGeometry width="307" height="190" as="geometry"/>
                </mxCell>
                <mxCell id="83" value="" style="shape=image;verticalLabelPosition=bottom;labelBackgroundColor=default;verticalAlign=top;aspect=fixed;imageAspect=0;image=https://streamlit.io/images/brand/streamlit-logo-primary-colormark-darktext.png;" parent="86" vertex="1">
                    <mxGeometry x="38.5" y="120" width="230" height="63.83" as="geometry"/>
                </mxCell>
                <mxCell id="84" value="" style="shape=image;verticalLabelPosition=bottom;labelBackgroundColor=default;verticalAlign=top;aspect=fixed;imageAspect=0;image=https://upload.wikimedia.org/wikipedia/commons/thumb/3/38/Jupyter_logo.svg/1767px-Jupyter_logo.svg.png;" parent="86" vertex="1">
                    <mxGeometry x="176.6199999999999" y="45" width="60.38" height="70" as="geometry"/>
                </mxCell>
                <mxCell id="85" value="" style="shape=image;verticalLabelPosition=bottom;labelBackgroundColor=default;verticalAlign=top;aspect=fixed;imageAspect=0;image=https://learning-with-funacademic.com/wp-content/uploads/2022/10/Python-Symbol.png;" parent="86" vertex="1">
                    <mxGeometry x="57" y="49.059999999999945" width="110" height="61.88" as="geometry"/>
                </mxCell>
                <mxCell id="87" value="" style="endArrow=classic;html=1;entryX=0.5;entryY=0;entryDx=0;entryDy=0;" parent="1" target="82" edge="1">
                    <mxGeometry relative="1" as="geometry">
                        <mxPoint x="1940" y="876" as="sourcePoint"/>
                        <mxPoint x="1400" y="1006" as="targetPoint"/>
                    </mxGeometry>
                </mxCell>
                <mxCell id="88" value="作成" style="edgeLabel;resizable=0;html=1;;align=center;verticalAlign=middle;" parent="87" connectable="0" vertex="1">
                    <mxGeometry relative="1" as="geometry"/>
                </mxCell>
                <mxCell id="90" value="" style="shape=flexArrow;endArrow=classic;html=1;exitX=0;exitY=0;exitDx=0;exitDy=0;entryX=1;entryY=0.75;entryDx=0;entryDy=0;" parent="1" source="82" target="43" edge="1">
                    <mxGeometry width="50" height="50" relative="1" as="geometry">
                        <mxPoint x="1210" y="870" as="sourcePoint"/>
                        <mxPoint x="1400" y="620" as="targetPoint"/>
                    </mxGeometry>
                </mxCell>
                <mxCell id="91" value="" style="shape=flexArrow;endArrow=classic;html=1;exitX=0;exitY=1;exitDx=0;exitDy=0;entryX=0;entryY=0;entryDx=150;entryDy=60;entryPerimeter=0;" parent="1" source="82" target="73" edge="1">
                    <mxGeometry width="50" height="50" relative="1" as="geometry">
                        <mxPoint x="1620" y="790" as="sourcePoint"/>
                        <mxPoint x="1410" y="630" as="targetPoint"/>
                    </mxGeometry>
                </mxCell>
                <mxCell id="92" value="" style="shape=flexArrow;endArrow=classic;html=1;exitX=0.5;exitY=1;exitDx=0;exitDy=0;entryX=0;entryY=0;entryDx=150;entryDy=65;entryPerimeter=0;" parent="1" source="82" target="77" edge="1">
                    <mxGeometry width="50" height="50" relative="1" as="geometry">
                        <mxPoint x="1710" y="1090" as="sourcePoint"/>
                        <mxPoint x="1608" y="1211" as="targetPoint"/>
                        <Array as="points">
                            <mxPoint x="1540" y="1210"/>
                        </Array>
                    </mxGeometry>
                </mxCell>
                <mxCell id="93" value="LAMDBA-Apps" style="swimlane;whiteSpace=wrap;html=1;fillColor=#f8cecc;strokeColor=#b85450;" parent="1" vertex="1">
                    <mxGeometry x="210" y="280" width="1440" height="1110" as="geometry"/>
                </mxCell>
                <mxCell id="95" value="判例" style="swimlane;whiteSpace=wrap;html=1;" parent="1" vertex="1">
                    <mxGeometry x="1740" y="290" width="380" height="310" as="geometry"/>
                </mxCell>
                <mxCell id="94" value="1次実験データ" style="shape=note;whiteSpace=wrap;html=1;backgroundOutline=1;darkOpacity=0.05;fillColor=#e1d5e7;strokeColor=#9673a6;" parent="95" vertex="1">
                    <mxGeometry x="30" y="56" width="120" height="100" as="geometry"/>
                </mxCell>
                <mxCell id="96" value="" style="group;fillColor=#fff2cc;strokeColor=#d6b656;" parent="95" vertex="1" connectable="0">
                    <mxGeometry x="60" y="210" width="260" height="80" as="geometry"/>
                </mxCell>
                <mxCell id="97" value="&lt;font style=&quot;font-size: 18px;&quot;&gt;アプリ名&lt;/font&gt;" style="shape=process;whiteSpace=wrap;html=1;backgroundOutline=1;verticalAlign=top;container=0;" parent="96" vertex="1">
                    <mxGeometry width="260" height="80" as="geometry"/>
                </mxCell>
                <mxCell id="99" value="ライブラリロゴ" style="text;html=1;align=center;verticalAlign=middle;whiteSpace=wrap;rounded=0;fontSize=20;" parent="96" vertex="1">
                    <mxGeometry x="55" y="40" width="150" height="30" as="geometry"/>
                </mxCell>
                <mxCell id="100" value="" style="endArrow=classic;html=1;exitX=1.013;exitY=0.5;exitDx=0;exitDy=0;exitPerimeter=0;entryX=0;entryY=0.5;entryDx=0;entryDy=0;entryPerimeter=0;" parent="95" source="94" target="101" edge="1">
                    <mxGeometry width="50" height="50" relative="1" as="geometry">
                        <mxPoint x="250" y="106" as="sourcePoint"/>
                        <mxPoint x="220" y="106" as="targetPoint"/>
                    </mxGeometry>
                </mxCell>
                <mxCell id="101" value="処理された&lt;span style=&quot;background-color: transparent;&quot;&gt;データ&lt;/span&gt;" style="shape=note;whiteSpace=wrap;html=1;backgroundOutline=1;darkOpacity=0.05;" parent="95" vertex="1">
                    <mxGeometry x="220" y="56" width="120" height="104" as="geometry"/>
                </mxCell>
                <mxCell id="104" value="" style="group;fillColor=#fff2cc;strokeColor=#d6b656;" vertex="1" connectable="0" parent="1">
                    <mxGeometry x="230" y="1060" width="260" height="80" as="geometry"/>
                </mxCell>
                <mxCell id="105" value="&lt;font style=&quot;font-size: 18px;&quot;&gt;HDFViewer&lt;/font&gt;" style="shape=process;whiteSpace=wrap;html=1;backgroundOutline=1;verticalAlign=top;container=0;" vertex="1" parent="104">
                    <mxGeometry width="260" height="80" as="geometry"/>
                </mxCell>
                <mxCell id="106" value="" style="shape=image;verticalLabelPosition=bottom;labelBackgroundColor=default;verticalAlign=top;aspect=fixed;imageAspect=0;image=https://streamlit.io/images/brand/streamlit-logo-primary-colormark-darktext.png;container=0;" vertex="1" parent="104">
                    <mxGeometry x="43.09000000000003" y="30" width="157.93" height="43.83" as="geometry"/>
                </mxCell>
                <mxCell id="109" value="" style="endArrow=classic;html=1;exitX=0.5;exitY=1;exitDx=0;exitDy=0;entryX=0.5;entryY=0;entryDx=0;entryDy=0;" edge="1" parent="1" source="41" target="105">
                    <mxGeometry relative="1" as="geometry">
                        <mxPoint x="500" y="870" as="sourcePoint"/>
                        <mxPoint x="607" y="810" as="targetPoint"/>
                    </mxGeometry>
                </mxCell>
                <mxCell id="110" value="&lt;font style=&quot;color: rgb(255, 0, 0);&quot;&gt;起動&lt;/font&gt;" style="edgeLabel;resizable=0;html=1;;align=center;verticalAlign=middle;fontSize=18;" connectable="0" vertex="1" parent="109">
                    <mxGeometry relative="1" as="geometry"/>
                </mxCell>
                <mxCell id="111" value="※ 出力された .hdf ファイルの&lt;div&gt;中身を確認できる&lt;/div&gt;" style="text;html=1;align=center;verticalAlign=middle;whiteSpace=wrap;rounded=0;" vertex="1" parent="1">
                    <mxGeometry x="270" y="1140" width="180" height="40" as="geometry"/>
                </mxCell>
            </root>
        </mxGraphModel>
    </diagram>
</mxfile>